<svg xmlns="http://www.w3.org/2000/svg" width="56" height="56" fill="none"><path fill="#525252" d="m27.8 34.6-7.1 3h23V44H13v-6.3a395.2 395.2 0 0 0 15.4-8.2l4-2.5c1-.7 1.6-1.4 2-1.9.5-.5.8-1 1-1.4l.1-1.3c0-.7-.2-1.4-.8-2-.4-.5-1.2-1-2.4-1.3a16 16 0 0 0-4.4-.5c-2.5 0-4.5.4-5.9 1.1-1.3.7-2.1 1.7-2.2 3H12v-.1a8 8 0 0 1 1.8-5.2 12 12 0 0 1 5.2-3.7 23 23 0 0 1 8.5-1.4c2.3 0 4.4.2 6.3.5 2 .4 3.6 1 5 1.7 1.5.8 2.6 1.7 3.3 3a7.6 7.6 0 0 1 1.2 4.3c0 1.6-.4 3-1.3 4.2-.8 1.2-2 2.3-3.5 3.3-1.4 1-3.1 2-5 2.8-1.8.9-3.8 1.7-5.8 2.5Z"/></svg>