<svg xmlns="http://www.w3.org/2000/svg" width="56" height="56" fill="none"><path fill="#525252" d="M19.3 34.3a3 3 0 0 0 1.2 2.3 8 8 0 0 0 3 1.4c1.3.2 2.8.4 4.3.4a15 15 0 0 0 6-1 3.2 3.2 0 0 0 2.2-3.2c0-1.4-.8-2.5-2.5-3.2-1.6-.6-4-1-7-1h-4.9v-3.5h4.8c2.3 0 4-.1 5.3-.5a6 6 0 0 0 2.9-1.3 3 3 0 0 0 .9-2.3c0-1.2-.7-2.1-2-2.8-1.3-.6-3.2-1-5.7-1a13 13 0 0 0-5.9 1.2c-1.5.7-2.3 1.7-2.3 3h-7.7v-.4c0-1.6.4-3 1.2-4.2a9.5 9.5 0 0 1 3.4-3.1 18 18 0 0 1 5.1-2 30.9 30.9 0 0 1 14.7.3 12 12 0 0 1 5.4 2.9 6.1 6.1 0 0 1 1.9 4.5 6 6 0 0 1-1 3.6c-.8.9-1.8 1.6-3 2.2a61.6 61.6 0 0 1-7.2 1.4c1 0 2 .2 2.9.3 1.8.2 3.4.6 4.7 1.2a7 7 0 0 1 3.1 2.2c.8 1 1.2 2.2 1.2 3.8 0 1.8-.7 3.5-2 4.9a13.4 13.4 0 0 1-5.8 3.2c-2.4.8-5.4 1.1-8.7 1.1a25 25 0 0 1-8.7-1.3c-2.5-.8-4.3-2-5.6-3.6a8.4 8.4 0 0 1-1.8-5.4v-.1h7.6Z"/></svg>